<?xml version="1.0" encoding="iso-8859-1"?>
<!-- Generator: Adobe Illustrator 25.4.1, SVG Export Plug-In . SVG Version: 6.00 Build 0)  -->
<svg version="1.1" id="Layer_1" xmlns="http://www.w3.org/2000/svg" xmlns:xlink="http://www.w3.org/1999/xlink" x="0px" y="0px"
	 viewBox="0 0 841.89 595.275" style="enable-background:new 0 0 841.89 595.275;" xml:space="preserve">
<path style="fill:#231F20;" d="M589.959,230.239v9.011h4.611l0,0c2.2,0,2.638,0.5,2.7,1.25c0.043,0.517-2.297,3.132-3.188,4.167
	l-3.541,4.25l-4.75,5.458l-2.667,3.167c-1.896,2.375-1.854,1.25-4.292-1.458l-2.374-2.833l-5.668-6.896
	c-0.712-0.862-4.896-5.172-4.896-6.209c0-1.207,0.737-0.875,3.94-0.875l0,0h3.203v-9.032h-45.023v8.886l0,0
	c11.214,0,11.445-0.424,15.36,4.062l6.188,7.125l18.375,21v11.667v1.614c-0.312,2.645-2.719,2.844-7.711,2.656l0,0h-4.269v8H600
	v-8.125h-5.606l-2.488,0.031c-3.625-0.062-4.273-0.299-4.273-3.753l0,0v-13.118l13.617-15.244l6.291-6.876
	c7.475-9.32,7.828-8.917,13.167-8.917h1.446h4.805v-9.011H589.959L589.959,230.239z"/>
<path style="fill:#231F20;" d="M231.688,244.188c0.312-5.062,9.997-7.812,21.438-7.812c8.88,0,20.611,2.68,25.812,6.375
	c2.375,1.688,4.5,3.312,6.062,9.375h-0.88H293v-21.958h-9.031l0.016,0.474c0.141,3.484-1.093,3.43-4.734,1.328
	c-5.469-3.156-16.475-5.728-26.38-5.635c-22.412,0.209-38.87,6.75-38.87,22.292c0,14.333,12.092,18.995,28.75,21.417l19.042,2
	c13.417,1.625,18.625,3.109,18.625,8.333c0,5.044-10.334,9.458-22.5,9.208c-8.749-0.18-22.042-3.792-25.417-6.583
	c-2.911-2.408-7.25-4.75-6.625-11.708h-0.334h-9.625v26h10.125l0,0c0-4.083-0.179-6.174,2.625-4.75
	c7.709,3.917,20.459,6.771,29.917,6.708c23.751-0.157,38.828-7.709,39.027-22.523c0.452-33.665-64.798-18.602-65.985-30.727
	L231.688,244.188z"/>
<path style="fill:#231F20;" d="M481.842,239.167h8.064c4.688-0.135,5.428,1.261,5.345,5.177v5.323v20.5l-44.064-40.013h-32.186
	v9.034h6.319l0,0c5.121,0,6.828,1.546,6.828,5v-1.086v40.219l0,0c0,3.453-1.707,3.867-6.828,3.867l0,0h-5.445v8.688h37.938v-8.562
	h-6.024l0,0c-5.122,0-7.002-0.539-7.002-3.992l0,0v-33.315l50.714,45.916l12.64,0.173v-52.992l0,0c0-3.454,1.706-4.018,6.831-4.018
	l0,0h4.95v-8.93h-38.079V239.167L481.842,239.167z"/>
<path style="fill:#231F20;" d="M361.531,226.287c-29.941,0-48.781,14.231-48.781,36.749c0,22.337,18.503,36.389,47.772,36.389
	c31.12,0,49.118-13.691,49.118-37.289C409.64,240.878,390.127,226.287,361.531,226.287L361.531,226.287L361.531,226.287
	L361.531,226.287z M359.375,290.125c-15.25-1.75-26.125-11.25-26.125-27.45c0-15.175,10-26.175,28.281-26.675
	c13.983-0.382,28.219,12,27.594,27.396C388.487,279.114,378.238,290,361.25,290L359.375,290.125z"/>
</svg>
